<svg width="16" height="16" viewBox="0 0 16 16" fill="none" xmlns="http://www.w3.org/2000/svg">
<path fill-rule="evenodd" clip-rule="evenodd" d="M8 12.6667C10.5773 12.6667 12.6667 10.5773 12.6667 8C12.6667 5.42267 10.5773 3.33333 8 3.33333C5.42267 3.33333 3.33333 5.42267 3.33333 8C3.33333 10.5773 5.42267 12.6667 8 12.6667ZM8 14C11.3137 14 14 11.3137 14 8C14 4.68629 11.3137 2 8 2C4.68629 2 2 4.68629 2 8C2 11.3137 4.68629 14 8 14ZM8 4.66667C8.36819 4.66667 8.66667 4.96514 8.66667 5.33333V8.66667C8.66667 9.03486 8.36819 9.33333 8 9.33333C7.63181 9.33333 7.33333 9.03486 7.33333 8.66667V5.33333C7.33333 4.96514 7.63181 4.66667 8 4.66667ZM8 11.3333C8.36819 11.3333 8.66667 11.0349 8.66667 10.6667C8.66667 10.2985 8.36819 10 8 10C7.63181 10 7.33333 10.2985 7.33333 10.6667C7.33333 11.0349 7.63181 11.3333 8 11.3333Z" fill="#E7640E"/>
<path fill-rule="evenodd" clip-rule="evenodd" d="M8 12.6667C10.5773 12.6667 12.6667 10.5773 12.6667 8C12.6667 5.42267 10.5773 3.33333 8 3.33333C5.42267 3.33333 3.33333 5.42267 3.33333 8C3.33333 10.5773 5.42267 12.6667 8 12.6667ZM8 14C11.3137 14 14 11.3137 14 8C14 4.68629 11.3137 2 8 2C4.68629 2 2 4.68629 2 8C2 11.3137 4.68629 14 8 14ZM8 4.66667C8.36819 4.66667 8.66667 4.96514 8.66667 5.33333V8.66667C8.66667 9.03486 8.36819 9.33333 8 9.33333C7.63181 9.33333 7.33333 9.03486 7.33333 8.66667V5.33333C7.33333 4.96514 7.63181 4.66667 8 4.66667ZM8 11.3333C8.36819 11.3333 8.66667 11.0349 8.66667 10.6667C8.66667 10.2985 8.36819 10 8 10C7.63181 10 7.33333 10.2985 7.33333 10.6667C7.33333 11.0349 7.63181 11.3333 8 11.3333Z" fill="white" fill-opacity="0.05"/>
</svg>
