<svg width="31" height="41" viewBox="0 0 31 41" fill="none" xmlns="http://www.w3.org/2000/svg">
<path d="M29.9998 8.95719V37C29.9998 39.2091 28.209 41 25.9998 41H4C1.79086 41 0 39.2091 0 37V5C0 2.79086 1.79086 1 4 1H21.3367L29.9998 8.95719Z" fill="url(#paint0_linear_11_1672)"/>
<path d="M18.3333 32H9" stroke="white" stroke-width="1.33333" stroke-linecap="round" stroke-linejoin="round"/>
<path d="M21 29.3333H9" stroke="white" stroke-width="1.33333" stroke-linecap="round" stroke-linejoin="round"/>
<path d="M18.3333 26.6667H9" stroke="white" stroke-width="1.33333" stroke-linecap="round" stroke-linejoin="round"/>
<path d="M21 24H9" stroke="white" stroke-width="1.33333" stroke-linecap="round" stroke-linejoin="round"/>
<g filter="url(#filter0_d_11_1672)">
<path d="M29.9998 8.95719H22.3367C21.7844 8.95719 21.3367 8.50947 21.3367 7.95719V1L29.9998 8.95719Z" fill="#C5CCDA"/>
</g>
<defs>
<filter id="filter0_d_11_1672" x="18.3367" y="0" width="12.6631" height="11.9573" filterUnits="userSpaceOnUse" color-interpolation-filters="sRGB">
<feFlood flood-opacity="0" result="BackgroundImageFix"/>
<feColorMatrix in="SourceAlpha" type="matrix" values="0 0 0 0 0 0 0 0 0 0 0 0 0 0 0 0 0 0 127 0" result="hardAlpha"/>
<feOffset dx="-1" dy="1"/>
<feGaussianBlur stdDeviation="1"/>
<feComposite in2="hardAlpha" operator="out"/>
<feColorMatrix type="matrix" values="0 0 0 0 0 0 0 0 0 0 0 0 0 0 0 0 0 0 0.2 0"/>
<feBlend mode="normal" in2="BackgroundImageFix" result="effect1_dropShadow_11_1672"/>
<feBlend mode="normal" in="SourceGraphic" in2="effect1_dropShadow_11_1672" result="shape"/>
</filter>
<linearGradient id="paint0_linear_11_1672" x1="45.5" y1="-22.5" x2="-16.5" y2="59.5" gradientUnits="userSpaceOnUse">
<stop stop-color="#35373C"/>
<stop offset="0.265" stop-color="#202743"/>
<stop offset="0.90788"/>
</linearGradient>
</defs>
</svg>
