<svg width="1024" height="900" viewBox="0 0 1024 900" fill="none" xmlns="http://www.w3.org/2000/svg">
<g opacity="0.3" clip-path="url(#clip0_80_4068)">
<path d="M490.314 524.032L415.979 626.772L490.778 633.839L490.314 524.032Z" fill="#F0EDF2" stroke="#F0EDF2" stroke-linejoin="round"/>
<path d="M490.314 524.032L416.79 517.327L415.979 626.772L490.314 524.032Z" fill="#F0EDF2" stroke="#F0EDF2" stroke-linejoin="round"/>
<path d="M324.131 495.583L357.762 686.749L415.978 626.772L324.131 495.583Z" fill="#F0ECF1" stroke="#F0ECF1" stroke-linejoin="round"/>
<path d="M432.33 816.127L530.091 766.841L490.778 633.839L432.33 816.127Z" fill="#E0E1E8" stroke="#E0E1E8" stroke-linejoin="round"/>
<path d="M490.778 633.839L580.305 544.87L490.314 524.032L490.778 633.839Z" fill="#EFEEF2" stroke="#EFEEF2" stroke-linejoin="round"/>
<path d="M505.158 359.502L406.469 376.172L490.314 524.032L505.158 359.502Z" fill="#F2ECF1" stroke="#F2ECF1" stroke-linejoin="round"/>
<path d="M490.314 524.032L406.469 376.172L416.79 517.327L490.314 524.032Z" fill="#F2ECF1" stroke="#F2ECF1" stroke-linejoin="round"/>
<path d="M416.79 517.327L324.131 495.583L415.978 626.772L416.79 517.327Z" fill="#F1ECF1" stroke="#F1ECF1" stroke-linejoin="round"/>
<path d="M432.33 816.127L490.778 633.839L415.979 626.772L432.33 816.127Z" fill="#E6E5EB" stroke="#E6E5EB" stroke-linejoin="round"/>
<path d="M490.778 633.839L593.526 686.568L580.305 544.87L490.778 633.839Z" fill="#ECECF1" stroke="#ECECF1" stroke-linejoin="round"/>
<path d="M347.325 379.978L324.131 495.583L416.79 517.327L347.325 379.978Z" fill="#F3ECF1" stroke="#F3ECF1" stroke-linejoin="round"/>
<path d="M584.248 393.749L505.158 359.502L490.314 524.032L584.248 393.749Z" fill="#F1ECF1" stroke="#F1ECF1" stroke-linejoin="round"/>
<path d="M357.762 686.75L432.33 816.127L415.978 626.772L357.762 686.75Z" fill="#E4E3EA" stroke="#E4E3EA" stroke-linejoin="round"/>
<path d="M530.091 766.841L593.526 686.569L490.778 633.839L530.091 766.841Z" fill="#E4E5EC" stroke="#E4E5EC" stroke-linejoin="round"/>
<path d="M333.525 248.788L347.325 379.977L406.469 376.172L333.525 248.788Z" fill="#F4EAF0" stroke="#F4EAF0" stroke-linejoin="round"/>
<path d="M406.469 376.172L347.325 379.978L416.79 517.327L406.469 376.172Z" fill="#F3EBF1" stroke="#F3EBF1" stroke-linejoin="round"/>
<path d="M580.305 544.87L584.248 393.749L490.314 524.032L580.305 544.87Z" fill="#F0EDF2" stroke="#F0EDF2" stroke-linejoin="round"/>
<path d="M676.675 484.892L584.248 393.749L580.305 544.87L676.675 484.892Z" fill="#F0EDF2" stroke="#F0EDF2" stroke-linejoin="round"/>
<path d="M252.347 682.582L332.481 790.396L357.762 686.75L252.347 682.582Z" fill="#E2E0E8" stroke="#E2E0E8" stroke-linejoin="round"/>
<path d="M357.762 686.75L332.481 790.397L432.33 816.127L357.762 686.75Z" fill="#DFDEE6" stroke="#DFDEE6" stroke-linejoin="round"/>
<path d="M354.979 913.432L426.995 891.688L432.33 816.127L354.979 913.432Z" fill="#D2D5DE" stroke="#D2D5DE" stroke-linejoin="round"/>
<path d="M432.33 816.127L528.699 956.92L530.091 766.84L432.33 816.127Z" fill="#D4D8E1" stroke="#D4D8E1" stroke-linejoin="round"/>
<path d="M584.248 393.749L523.365 277.78L505.158 359.502L584.248 393.749Z" fill="#F2ECF1" stroke="#F2ECF1" stroke-linejoin="round"/>
<path d="M505.158 359.502L444.506 244.439L406.469 376.172L505.158 359.502Z" fill="#F3EBF1" stroke="#F3EBF1" stroke-linejoin="round"/>
<path d="M243.649 350.985L252.463 522.582L324.131 495.583L243.649 350.985Z" fill="#EFE8EE" stroke="#EFE8EE" stroke-linejoin="round"/>
<path d="M324.132 495.583L252.347 682.582L357.762 686.749L324.132 495.583Z" fill="#EDE9EF" stroke="#EDE9EF" stroke-linejoin="round"/>
<path d="M252.463 522.582L252.347 682.582L324.132 495.583L252.463 522.582Z" fill="#EDE9EF" stroke="#EDE9EF" stroke-linejoin="round"/>
<path d="M523.365 277.78L444.506 244.439L505.158 359.502L523.365 277.78Z" fill="#F3EBF0" stroke="#F3EBF0" stroke-linejoin="round"/>
<path d="M593.41 893.862L604.079 822.288L530.091 766.84L593.41 893.862Z" fill="#D5DAE2" stroke="#D5DAE2" stroke-linejoin="round"/>
<path d="M530.091 766.84L604.079 822.287L593.525 686.568L530.091 766.84Z" fill="#DDE0E7" stroke="#DDE0E7" stroke-linejoin="round"/>
<path d="M682.473 660.657L676.675 484.893L580.305 544.87L682.473 660.657Z" fill="#EEEEF3" stroke="#EEEEF3" stroke-linejoin="round"/>
<path d="M682.473 660.657L580.305 544.87L593.526 686.568L682.473 660.657Z" fill="#EAECF1" stroke="#EAECF1" stroke-linejoin="round"/>
<path d="M584.248 393.749L603.847 273.613L523.365 277.78L584.248 393.749Z" fill="#F2ECF1" stroke="#F2ECF1" stroke-linejoin="round"/>
<path d="M700.565 781.336L682.474 660.657L593.526 686.568L700.565 781.336Z" fill="#E1E5EB" stroke="#E1E5EB" stroke-linejoin="round"/>
<path d="M332.481 790.396L354.979 913.432L432.33 816.127L332.481 790.396Z" fill="#D6D7E1" stroke="#D6D7E1" stroke-linejoin="round"/>
<path d="M272.062 929.377L354.979 913.432L332.481 790.396L272.062 929.377Z" fill="#D1D3DD" stroke="#D1D3DD" stroke-linejoin="round"/>
<path d="M528.699 956.92L593.41 893.862L530.091 766.84L528.699 956.92Z" fill="#D1D6DF" stroke="#D1D6DF" stroke-linejoin="round"/>
<path d="M604.079 822.287L700.565 781.336L593.526 686.568L604.079 822.287Z" fill="#DCE0E7" stroke="#DCE0E7" stroke-linejoin="round"/>
<path d="M528.699 956.92L432.33 816.127L426.995 891.688L528.699 956.92Z" fill="#D0D4DE" stroke="#D0D4DE" stroke-linejoin="round"/>
<path d="M444.507 244.439L333.525 248.788L406.469 376.172L444.507 244.439Z" fill="#F4EAF0" stroke="#F4EAF0" stroke-linejoin="round"/>
<path d="M347.325 379.977L243.649 350.985L324.131 495.583L347.325 379.977Z" fill="#F1E9EF" stroke="#F1E9EF" stroke-linejoin="round"/>
<path d="M676.791 391.212L603.847 273.613L584.248 393.749L676.791 391.212Z" fill="#F1EDF1" stroke="#F1EDF1" stroke-linejoin="round"/>
<path d="M491.938 108.539L406.353 125.391L444.507 244.439L491.938 108.539Z" fill="#E9E3EA" stroke="#E9E3EA" stroke-linejoin="round"/>
<path d="M788.584 375.991L676.791 391.212L676.675 484.892L788.584 375.991Z" fill="#ECEBF0" stroke="#ECEBF0" stroke-linejoin="round"/>
<path d="M676.675 484.893L676.791 391.212L584.248 393.749L676.675 484.893Z" fill="#F0EDF2" stroke="#F0EDF2" stroke-linejoin="round"/>
<path d="M506.317 1057.3L528.699 956.92L426.995 891.688L506.317 1057.3Z" fill="#CFD3DD" stroke="#CFD3DD" stroke-linejoin="round"/>
<path d="M165.487 627.859L234.024 779.524L252.347 682.582L165.487 627.859Z" fill="#DEDEE5" stroke="#DEDEE5" stroke-linejoin="round"/>
<path d="M252.347 682.582L234.024 779.524L332.481 790.396L252.347 682.582Z" fill="#DCDCE4" stroke="#DCDCE4" stroke-linejoin="round"/>
<path d="M333.525 248.788L243.649 350.985L347.325 379.977L333.525 248.788Z" fill="#F2E9EF" stroke="#F2E9EF" stroke-linejoin="round"/>
<path d="M252.463 522.582L179.171 545.051L252.347 682.582L252.463 522.582Z" fill="#EAE7ED" stroke="#EAE7ED" stroke-linejoin="round"/>
<path d="M243.649 350.985L179.171 545.051L252.463 522.582L243.649 350.985Z" fill="#EBE6EC" stroke="#EBE6EC" stroke-linejoin="round"/>
<path d="M680.27 920.498L700.565 781.336L604.079 822.288L680.27 920.498Z" fill="#D3D9E2" stroke="#D3D9E2" stroke-linejoin="round"/>
<path d="M682.473 660.657L772.813 534.904L676.675 484.893L682.473 660.657Z" fill="#EBECF1" stroke="#EBECF1" stroke-linejoin="round"/>
<path d="M333.525 248.788L258.493 255.311L243.649 350.985L333.525 248.788Z" fill="#F0E6ED" stroke="#F0E6ED" stroke-linejoin="round"/>
<path d="M243.649 350.985L144.844 363.669L179.171 545.051L243.649 350.985Z" fill="#EAE4EA" stroke="#EAE4EA" stroke-linejoin="round"/>
<path d="M234.024 779.524L272.062 929.377L332.481 790.396L234.024 779.524Z" fill="#D4D5DE" stroke="#D4D5DE" stroke-linejoin="round"/>
<path d="M411.688 1064.92L506.318 1057.3L426.995 891.688L411.688 1064.92Z" fill="#CFD3DD" stroke="#CFD3DD" stroke-linejoin="round"/>
<path d="M179.171 545.051L165.487 627.859L252.347 682.582L179.171 545.051Z" fill="#E6E4EA" stroke="#E6E4EA" stroke-linejoin="round"/>
<path d="M234.024 779.524L166.878 907.814L272.062 929.377L234.024 779.524Z" fill="#CCCFD9" stroke="#CCCFD9" stroke-linejoin="round"/>
<path d="M444.507 244.439L406.353 125.391L333.525 248.788L444.507 244.439Z" fill="#EDE5EC" stroke="#EDE5EC" stroke-linejoin="round"/>
<path d="M333.525 248.788L269.974 121.767L258.493 255.311L333.525 248.788Z" fill="#EBE3E9" stroke="#EBE3E9" stroke-linejoin="round"/>
<path d="M491.937 108.539L444.506 244.439L523.365 277.78L491.937 108.539Z" fill="#EDE6EC" stroke="#EDE6EC" stroke-linejoin="round"/>
<path d="M676.791 391.212L676.443 272.344L603.847 273.613L676.791 391.212Z" fill="#F1ECF1" stroke="#F1ECF1" stroke-linejoin="round"/>
<path d="M617.299 111.438L491.938 108.539L523.365 277.78L617.299 111.438Z" fill="#E9E4EA" stroke="#E9E4EA" stroke-linejoin="round"/>
<path d="M788.584 375.991L676.443 272.344L676.791 391.212L788.584 375.991Z" fill="#EDEAF0" stroke="#EDEAF0" stroke-linejoin="round"/>
<path d="M617.299 111.438L523.365 277.78L603.847 273.613L617.299 111.438Z" fill="#ECE8ED" stroke="#ECE8ED" stroke-linejoin="round"/>
<path d="M411.687 1064.92L426.995 891.688L354.979 913.432L411.687 1064.92Z" fill="#D0D2DD" stroke="#D0D2DD" stroke-linejoin="round"/>
<path d="M528.699 956.92L587.959 1086.48L593.41 893.862L528.699 956.92Z" fill="#CED3DD" stroke="#CED3DD" stroke-linejoin="round"/>
<path d="M593.41 893.862L680.27 920.498L604.079 822.288L593.41 893.862Z" fill="#CFD6DF" stroke="#CFD6DF" stroke-linejoin="round"/>
<path d="M668.093 1055.86L680.27 920.498L593.41 893.862L668.093 1055.86Z" fill="#CDD4DE" stroke="#CDD4DE" stroke-linejoin="round"/>
<path d="M751.823 784.96L682.474 660.657L700.565 781.336L751.823 784.96Z" fill="#DBE0E7" stroke="#DBE0E7" stroke-linejoin="round"/>
<path d="M788.933 682.401L772.813 534.904L682.474 660.657L788.933 682.401Z" fill="#E4E7ED" stroke="#E4E7ED" stroke-linejoin="round"/>
<path d="M422.588 -2.89941L348.833 109.626L406.353 125.391L422.588 -2.89941Z" fill="#E4DEE5" stroke="#E4DEE5" stroke-linejoin="round"/>
<path d="M406.353 125.391L348.833 109.626L333.525 248.788L406.353 125.391Z" fill="#EAE3E9" stroke="#EAE3E9" stroke-linejoin="round"/>
<path d="M770.493 893.681L751.822 784.96L700.564 781.336L770.493 893.681Z" fill="#CFD7E0" stroke="#CFD7E0" stroke-linejoin="round"/>
<path d="M146.12 214.179L243.649 350.985L258.493 255.311L146.12 214.179Z" fill="#EBE3E9" stroke="#EBE3E9" stroke-linejoin="round"/>
<path d="M146.12 214.179L144.844 363.669L243.649 350.985L146.12 214.179Z" fill="#EAE2E9" stroke="#EAE2E9" stroke-linejoin="round"/>
<path d="M179.171 545.051L85.7007 535.085L165.487 627.86L179.171 545.051Z" fill="#E5E3E9" stroke="#E5E3E9" stroke-linejoin="round"/>
<path d="M751.823 784.96L788.933 682.401L682.474 660.657L751.823 784.96Z" fill="#DBE1E8" stroke="#DBE1E8" stroke-linejoin="round"/>
<path d="M676.443 272.344L617.299 111.438L603.847 273.613L676.443 272.344Z" fill="#ECE8ED" stroke="#ECE8ED" stroke-linejoin="round"/>
<path d="M165.487 627.859L149.367 813.59L234.024 779.524L165.487 627.859Z" fill="#D7D8E1" stroke="#D7D8E1" stroke-linejoin="round"/>
<path d="M83.2651 799.819L149.367 813.59L165.487 627.859L83.2651 799.819Z" fill="#D3D6DE" stroke="#D3D6DE" stroke-linejoin="round"/>
<path d="M348.833 109.626L269.974 121.767L333.525 248.788L348.833 109.626Z" fill="#E9E1E8" stroke="#E9E1E8" stroke-linejoin="round"/>
<path d="M149.367 813.59L166.878 907.814L234.024 779.524L149.367 813.59Z" fill="#CDD0DA" stroke="#CDD0DA" stroke-linejoin="round"/>
<path d="M855.614 409.15L788.584 375.991L772.812 534.904L855.614 409.15Z" fill="#E3E4EB" stroke="#E3E4EB" stroke-linejoin="round"/>
<path d="M772.813 534.904L788.584 375.991L676.675 484.892L772.813 534.904Z" fill="#E9E9EE" stroke="#E9E9EE" stroke-linejoin="round"/>
<path d="M676.443 272.344L696.042 84.8018L617.299 111.438L676.443 272.344Z" fill="#E7E5EA" stroke="#E7E5EA" stroke-linejoin="round"/>
<path d="M144.845 363.669L85.7007 535.085L179.171 545.051L144.845 363.669Z" fill="#E5E2E8" stroke="#E5E2E8" stroke-linejoin="round"/>
<path d="M149.367 813.59L90.687 946.047L166.878 907.814L149.367 813.59Z" fill="#C4C9D4" stroke="#C4C9D4" stroke-linejoin="round"/>
<path d="M587.959 1086.48L668.093 1055.86L593.41 893.862L587.959 1086.48Z" fill="#CDD4DE" stroke="#CDD4DE" stroke-linejoin="round"/>
<path d="M680.27 920.498L770.493 893.681L700.564 781.336L680.27 920.498Z" fill="#CDD5DE" stroke="#CDD5DE" stroke-linejoin="round"/>
<path d="M751.822 784.96L839.262 809.785L788.932 682.401L751.822 784.96Z" fill="#D1D8E1" stroke="#D1D8E1" stroke-linejoin="round"/>
<path d="M780.003 1029.04L770.493 893.681L680.27 920.498L780.003 1029.04Z" fill="#C6CFDA" stroke="#C6CFDA" stroke-linejoin="round"/>
<path d="M491.938 108.539L422.589 -2.89941L406.353 125.391L491.938 108.539Z" fill="#E3DFE6" stroke="#E3DFE6" stroke-linejoin="round"/>
<path d="M348.833 109.626L329.93 -9.24121L269.974 121.767L348.833 109.626Z" fill="#E3DDE4" stroke="#E3DDE4" stroke-linejoin="round"/>
<path d="M496.112 -48.3804L422.588 -2.89905L491.937 108.539L496.112 -48.3804Z" fill="#DFDCE3" stroke="#DFDCE3" stroke-linejoin="round"/>
<path d="M788.584 375.991L771.537 239.909L676.443 272.344L788.584 375.991Z" fill="#EBE7ED" stroke="#EBE7ED" stroke-linejoin="round"/>
<path d="M161.892 125.028L146.12 214.179L258.493 255.311L161.892 125.028Z" fill="#E4DDE5" stroke="#E4DDE5" stroke-linejoin="round"/>
<path d="M144.844 363.669L80.9458 401.722L85.7005 535.085L144.844 363.669Z" fill="#E4E0E6" stroke="#E4E0E6" stroke-linejoin="round"/>
<path d="M161.892 125.028L258.493 255.311L269.974 121.767L161.892 125.028Z" fill="#E4DEE5" stroke="#E4DEE5" stroke-linejoin="round"/>
<path d="M90.3392 228.675L80.9458 401.721L144.844 363.669L90.3392 228.675Z" fill="#E5DFE6" stroke="#E5DFE6" stroke-linejoin="round"/>
<path d="M839.262 809.785L844.713 644.349L788.932 682.401L839.262 809.785Z" fill="#D3DAE2" stroke="#D3DAE2" stroke-linejoin="round"/>
<path d="M788.932 682.401L844.713 644.349L772.812 534.904L788.932 682.401Z" fill="#DFE4EA" stroke="#DFE4EA" stroke-linejoin="round"/>
<path d="M788.584 375.991L875.909 240.634L771.537 239.909L788.584 375.991Z" fill="#E4E2E9" stroke="#E4E2E9" stroke-linejoin="round"/>
<path d="M-17.9751 622.786L62.9708 657.214L-19.8306 551.755L-17.9751 622.786Z" fill="#DADCE3" stroke="#DADCE3" stroke-linejoin="round"/>
<path d="M85.7005 535.085L62.9707 657.214L165.487 627.86L85.7005 535.085Z" fill="#E1E1E7" stroke="#E1E1E7" stroke-linejoin="round"/>
<path d="M422.588 -2.89919L329.93 -9.24121L348.833 109.626L422.588 -2.89919Z" fill="#E1DCE3" stroke="#E1DCE3" stroke-linejoin="round"/>
<path d="M771.537 239.909L696.042 84.8018L676.443 272.344L771.537 239.909Z" fill="#E6E5EB" stroke="#E6E5EB" stroke-linejoin="round"/>
<path d="M579.03 -25.3679L496.112 -48.3804L491.938 108.539L579.03 -25.3679Z" fill="#DEDCE3" stroke="#DEDCE3" stroke-linejoin="round"/>
<path d="M62.9707 657.214L83.2652 799.819L165.487 627.859L62.9707 657.214Z" fill="#D7D9E1" stroke="#D7D9E1" stroke-linejoin="round"/>
<path d="M844.713 644.349L858.513 550.849L772.812 534.904L844.713 644.349Z" fill="#E0E4EA" stroke="#E0E4EA" stroke-linejoin="round"/>
<path d="M579.03 -25.3682L491.938 108.539L617.299 111.438L579.03 -25.3682Z" fill="#E1DFE6" stroke="#E1DFE6" stroke-linejoin="round"/>
<path d="M690.127 -29.7168L579.03 -25.368L617.299 111.438L690.127 -29.7168Z" fill="#DDDDE4" stroke="#DDDDE4" stroke-linejoin="round"/>
<path d="M848.54 942.423L839.262 809.785L770.493 893.681L848.54 942.423Z" fill="#C1CBD7" stroke="#C1CBD7" stroke-linejoin="round"/>
<path d="M770.493 893.681L839.262 809.785L751.822 784.96L770.493 893.681Z" fill="#CAD2DC" stroke="#CAD2DC" stroke-linejoin="round"/>
<path d="M948.273 516.784L927.166 406.614L858.513 550.849L948.273 516.784Z" fill="#D8DCE4" stroke="#D8DCE4" stroke-linejoin="round"/>
<path d="M177.199 -59.2524L161.892 125.028L269.974 121.767L177.199 -59.2524Z" fill="#DBD7DF" stroke="#DBD7DF" stroke-linejoin="round"/>
<path d="M146.12 214.179L90.3394 228.675L144.844 363.669L146.12 214.179Z" fill="#E5DEE5" stroke="#E5DEE5" stroke-linejoin="round"/>
<path d="M858.513 550.849L855.614 409.15L772.812 534.904L858.513 550.849Z" fill="#E0E3E9" stroke="#E0E3E9" stroke-linejoin="round"/>
<path d="M771.537 239.909L763.071 89.8754L696.042 84.8018L771.537 239.909Z" fill="#DFDFE6" stroke="#DFDFE6" stroke-linejoin="round"/>
<path d="M95.7899 87.1572L90.3394 228.675L146.12 214.179L95.7899 87.1572Z" fill="#DDD9E0" stroke="#DDD9E0" stroke-linejoin="round"/>
<path d="M-19.8306 551.755L62.9708 657.214L85.7006 535.085L-19.8306 551.755Z" fill="#DEDEE5" stroke="#DEDEE5" stroke-linejoin="round"/>
<path d="M83.2651 799.819L90.6871 946.048L149.367 813.59L83.2651 799.819Z" fill="#C6CBD6" stroke="#C6CBD6" stroke-linejoin="round"/>
<path d="M-5.79834 819.751L90.6873 946.048L83.2653 799.819L-5.79834 819.751Z" fill="#C3C8D3" stroke="#C3C8D3" stroke-linejoin="round"/>
<path d="M329.93 -9.24142L271.482 -36.0591L269.974 121.767L329.93 -9.24142Z" fill="#DDD9E0" stroke="#DDD9E0" stroke-linejoin="round"/>
<path d="M-24.3535 237.191L3.82678 351.348L90.3391 228.675L-24.3535 237.191Z" fill="#DEDAE1" stroke="#DEDAE1" stroke-linejoin="round"/>
<path d="M878.344 89.1504L763.071 89.8752L771.537 239.909L878.344 89.1504Z" fill="#DADAE2" stroke="#DADAE2" stroke-linejoin="round"/>
<path d="M696.042 84.8019L690.127 -29.7168L617.299 111.438L696.042 84.8019Z" fill="#DFDFE6" stroke="#DFDFE6" stroke-linejoin="round"/>
<path d="M763.072 89.8755L690.127 -29.7168L696.042 84.8019L763.072 89.8755Z" fill="#DBDCE3" stroke="#DBDCE3" stroke-linejoin="round"/>
<path d="M780.003 1029.04L848.54 942.424L770.493 893.681L780.003 1029.04Z" fill="#C1CBD7" stroke="#C1CBD7" stroke-linejoin="round"/>
<path d="M948.273 516.784L858.513 550.849L956.622 623.873L948.273 516.784Z" fill="#D7DCE4" stroke="#D7DCE4" stroke-linejoin="round"/>
<path d="M927.167 406.614L875.909 240.634L855.614 409.151L927.167 406.614Z" fill="#DDDDE5" stroke="#DDDDE5" stroke-linejoin="round"/>
<path d="M855.614 409.151L875.909 240.634L788.584 375.991L855.614 409.151Z" fill="#E1E0E8" stroke="#E1E0E8" stroke-linejoin="round"/>
<path d="M763.072 89.8755L785.105 -9.24115L690.127 -29.7168L763.072 89.8755Z" fill="#D6D8E0" stroke="#D6D8E0" stroke-linejoin="round"/>
<path d="M927.167 406.614L855.614 409.151L858.513 550.849L927.167 406.614Z" fill="#DCDEE6" stroke="#DCDEE6" stroke-linejoin="round"/>
<path d="M-19.8306 551.755L85.7006 535.085L80.9459 401.721L-19.8306 551.755Z" fill="#DFDEE4" stroke="#DFDEE4" stroke-linejoin="round"/>
<path d="M62.9709 657.214L-5.79834 819.751L83.2653 799.819L62.9709 657.214Z" fill="#CDD0DA" stroke="#CDD0DA" stroke-linejoin="round"/>
<path d="M95.79 87.1572L146.12 214.179L161.892 125.028L95.79 87.1572Z" fill="#DCD8E0" stroke="#DCD8E0" stroke-linejoin="round"/>
<path d="M90.3395 228.675L3.82715 351.348L80.9461 401.721L90.3395 228.675Z" fill="#E2DDE4" stroke="#E2DDE4" stroke-linejoin="round"/>
<path d="M3.82696 351.348L-19.8306 551.755L80.9459 401.721L3.82696 351.348Z" fill="#DEDCE3" stroke="#DEDCE3" stroke-linejoin="round"/>
<path d="M177.2 -59.2524L95.79 87.1575L161.892 125.028L177.2 -59.2524Z" fill="#D6D3DC" stroke="#D6D3DC" stroke-linejoin="round"/>
<path d="M271.482 -36.0588L177.2 -59.2524L269.974 121.767L271.482 -36.0588Z" fill="#D9D6DE" stroke="#D9D6DE" stroke-linejoin="round"/>
<path d="M858.513 550.85L844.713 644.349L956.622 623.873L858.513 550.85Z" fill="#D9DEE6" stroke="#D9DEE6" stroke-linejoin="round"/>
<path d="M-17.9751 622.786L-5.79843 819.751L62.9708 657.214L-17.9751 622.786Z" fill="#D1D4DC" stroke="#D1D4DC" stroke-linejoin="round"/>
<path d="M956.622 623.873L844.713 644.349L954.767 801.993L956.622 623.873Z" fill="#CDD4DE" stroke="#CDD4DE" stroke-linejoin="round"/>
<path d="M878.344 89.1506L785.105 -9.24121L763.071 89.8754L878.344 89.1506Z" fill="#D3D6DE" stroke="#D3D6DE" stroke-linejoin="round"/>
<path d="M954.767 801.993L844.713 644.349L839.263 809.785L954.767 801.993Z" fill="#CAD2DC" stroke="#CAD2DC" stroke-linejoin="round"/>
<path d="M-5.79834 819.751L6.26236 956.557L90.6873 946.048L-5.79834 819.751Z" fill="#BCC3CF" stroke="#BCC3CF" stroke-linejoin="round"/>
<path d="M848.54 942.423L954.767 801.993L839.263 809.785L848.54 942.423Z" fill="#BFC9D5" stroke="#BFC9D5" stroke-linejoin="round"/>
<path d="M848.54 942.423L959.986 920.136L954.767 801.993L848.54 942.423Z" fill="#B7C3D0" stroke="#B7C3D0" stroke-linejoin="round"/>
<path d="M927.631 91.6872L878.344 89.1504L875.909 240.634L927.631 91.6872Z" fill="#D1D3DD" stroke="#D1D3DD" stroke-linejoin="round"/>
<path d="M875.909 240.634L878.344 89.1504L771.537 239.909L875.909 240.634Z" fill="#DADAE2" stroke="#DADAE2" stroke-linejoin="round"/>
<path d="M943.518 261.472L875.909 240.634L927.167 406.614L943.518 261.472Z" fill="#DBDAE3" stroke="#DBDAE3" stroke-linejoin="round"/>
<path d="M2.0874 101.653L90.3393 228.675L95.7898 87.1572L2.0874 101.653Z" fill="#D7D4DC" stroke="#D7D4DC" stroke-linejoin="round"/>
<path d="M2.08725 101.653L-24.3535 237.191L90.3391 228.675L2.08725 101.653Z" fill="#D8D5DD" stroke="#D8D5DD" stroke-linejoin="round"/>
<path d="M3.82685 351.348L-86.2805 396.829L-19.8307 551.755L3.82685 351.348Z" fill="#DDDBE2" stroke="#DDDBE2" stroke-linejoin="round"/>
<path d="M1025.86 374.541L943.518 261.472L927.167 406.614L1025.86 374.541Z" fill="#D5D7E0" stroke="#D5D7E0" stroke-linejoin="round"/>
<path d="M1034.44 488.335L927.167 406.614L948.273 516.784L1034.44 488.335Z" fill="#D3D7E1" stroke="#D3D7E1" stroke-linejoin="round"/>
<path d="M177.199 -59.2524L69.001 -13.7711L95.7896 87.1575L177.199 -59.2524Z" fill="#D1D0D8" stroke="#D1D0D8" stroke-linejoin="round"/>
<path d="M-5.79842 819.751L-113.301 917.962L6.26229 956.557L-5.79842 819.751Z" fill="#BBC2CE" stroke="#BBC2CE" stroke-linejoin="round"/>
<path d="M69.0011 -13.771L2.0874 101.654L95.7898 87.1577L69.0011 -13.771Z" fill="#D1D0D8" stroke="#D1D0D8" stroke-linejoin="round"/>
<path d="M1012.17 771.733L1023.54 640.362L956.623 623.873L1012.17 771.733Z" fill="#C6CFDA" stroke="#C6CFDA" stroke-linejoin="round"/>
<path d="M-105.299 277.78L3.82685 351.348L-24.3534 237.191L-105.299 277.78Z" fill="#DED9E1" stroke="#DED9E1" stroke-linejoin="round"/>
<path d="M-105.299 277.78L-86.2805 396.829L3.82685 351.348L-105.299 277.78Z" fill="#DEDAE2" stroke="#DEDAE2" stroke-linejoin="round"/>
<path d="M943.518 261.472L927.631 91.6875L875.909 240.634L943.518 261.472Z" fill="#D3D5DE" stroke="#D3D5DE" stroke-linejoin="round"/>
<path d="M878.344 89.1507L880.663 -37.146L785.105 -9.24113L878.344 89.1507Z" fill="#CCD0D9" stroke="#CCD0D9" stroke-linejoin="round"/>
<path d="M1012.17 771.733L956.623 623.873L954.767 801.993L1012.17 771.733Z" fill="#C3CCD8" stroke="#C3CCD8" stroke-linejoin="round"/>
<path d="M956.622 623.873L1023.54 640.362L948.272 516.784L956.622 623.873Z" fill="#D1D8E1" stroke="#D1D8E1" stroke-linejoin="round"/>
<path d="M943.518 261.472L1038.03 105.821L927.63 91.6875L943.518 261.472Z" fill="#CBCED9" stroke="#CBCED9" stroke-linejoin="round"/>
<path d="M1012.17 771.733L954.767 801.993L959.986 920.136L1012.17 771.733Z" fill="#B8C4D1" stroke="#B8C4D1" stroke-linejoin="round"/>
<path d="M1028.64 953.658L1012.17 771.733L959.985 920.136L1028.64 953.658Z" fill="#B0BDCC" stroke="#B0BDCC" stroke-linejoin="round"/>
<path d="M927.63 91.6875L880.663 -37.146L878.344 89.1507L927.63 91.6875Z" fill="#CACED8" stroke="#CACED8" stroke-linejoin="round"/>
<path d="M1023.54 640.362L1034.44 488.335L948.272 516.783L1023.54 640.362Z" fill="#CFD5DF" stroke="#CFD5DF" stroke-linejoin="round"/>
<path d="M1034.44 488.335L1025.86 374.542L927.167 406.614L1034.44 488.335Z" fill="#D1D5DF" stroke="#D1D5DF" stroke-linejoin="round"/>
<path d="M-85.3525 91.6875L-24.3532 237.191L2.08755 101.654L-85.3525 91.6875Z" fill="#D3D2DA" stroke="#D3D2DA" stroke-linejoin="round"/>
<path d="M-27.4844 -57.4404L-85.3525 91.6876L2.08755 101.654L-27.4844 -57.4404Z" fill="#CCCCD5" stroke="#CCCCD5" stroke-linejoin="round"/>
<path d="M949.548 -40.77L880.663 -37.146L927.63 91.6875L949.548 -40.77Z" fill="#C5CAD5" stroke="#C5CAD5" stroke-linejoin="round"/>
<path d="M1012.17 771.732L1110.51 637.101L1023.54 640.362L1012.17 771.732Z" fill="#C3CDD8" stroke="#C3CDD8" stroke-linejoin="round"/>
<path d="M1023.54 640.362L1110.51 637.101L1034.44 488.335L1023.54 640.362Z" fill="#CCD4DE" stroke="#CCD4DE" stroke-linejoin="round"/>
<path d="M-27.4844 -57.4404L2.08754 101.654L69.0012 -13.7711L-27.4844 -57.4404Z" fill="#CBCBD4" stroke="#CBCBD4" stroke-linejoin="round"/>
<path d="M1038.03 105.821L949.548 -40.77L927.63 91.6875L1038.03 105.821Z" fill="#C3C9D4" stroke="#C3C9D4" stroke-linejoin="round"/>
<path d="M1025.86 374.541L1048.59 215.991L943.518 261.472L1025.86 374.541Z" fill="#D1D2DD" stroke="#D1D2DD" stroke-linejoin="round"/>
<path d="M1141.01 760.317L1110.51 637.101L1012.17 771.732L1141.01 760.317Z" fill="#BFC9D5" stroke="#BFC9D5" stroke-linejoin="round"/>
<path d="M1141.01 760.317L1012.17 771.733L1128.26 956.195L1141.01 760.317Z" fill="#B4C0CE" stroke="#B4C0CE" stroke-linejoin="round"/>
<path d="M1048.59 215.991L1038.03 105.821L943.518 261.472L1048.59 215.991Z" fill="#CACDD8" stroke="#CACDD8" stroke-linejoin="round"/>
<path d="M1041.4 -13.7712L949.548 -40.77L1038.03 105.821L1041.4 -13.7712Z" fill="#BDC4D0" stroke="#BDC4D0" stroke-linejoin="round"/>
<path d="M1128.26 956.195L1012.17 771.733L1028.64 953.658L1128.26 956.195Z" fill="#ADBBC9" stroke="#ADBBC9" stroke-linejoin="round"/>
</g>
<defs>
<clipPath id="clip0_80_4068">
<rect width="1024" height="900" fill="white"/>
</clipPath>
</defs>
</svg>
